# xmcd
#
# Track frame offsets:
#	150
#	25805
#	40483
#	58145
#	74098
#	91788
#	107748
#	125093
#	141868
#	157615
#
# Disc length: 2353 seconds
#
# Revision: 2
# Processed by: cddbd v1.5.2PL0 Copyright (c) Steve Scherf et al.
# Submitted via: EasyCDDAExtractor 15.3.0.1
#
DISCID=8a092f0a
DTITLE=Yolandita Monge - Laberinto De Amor
DYEAR=1987
DGENRE=Latin
TTITLE0=Laberinto De Amor
TTITLE1=Amandote
TTITLE2=Todas Las Noches Quiero
TTITLE3=Solo Yo
TTITLE4=Contigo
TTITLE5=Siempre Juntos
TTITLE6=Te Agradezco
TTITLE7=Eres Magico
TTITLE8=A Punto
TTITLE9=Ahora, Ahora
EXTD=
EXTT0=
EXTT1=
EXTT2=
EXTT3=
EXTT4=
EXTT5=
EXTT6=
EXTT7=
EXTT8=
EXTT9=
PLAYORDER=
